<?xml version="1.0" encoding="UTF-8"?>
<mxfile host="app.diagrams.net" modified="2024-12-23T12:00:00.000Z" agent="Mozilla/5.0" version="24.7.17" etag="UCdetail-09" type="device">
  <diagram name="UCdetail-09: Content Management Module" id="ucdetail-09">
    <mxGraphModel dx="1400" dy="900" grid="1" gridSize="10" guides="1" tooltips="1" connect="1" arrows="1" fold="1" page="1" pageScale="1" pageWidth="1200" pageHeight="800" math="0" shadow="0">
      <root>
        <mxCell id="0"/>
        <mxCell id="1" parent="0"/>
        
        <mxCell id="title" value="UCdetail-09: Content Management Module" style="text;html=1;align=center;verticalAlign=middle;whiteSpace=wrap;rounded=0;fontSize=18;fontStyle=1;fillColor=#eb2f96;fontColor=#ffffff" vertex="1" parent="1">
          <mxGeometry x="200" y="20" width="800" height="40" as="geometry"/>
        </mxCell>

        <mxCell id="system-boundary" value="Content Management Module" style="rounded=1;whiteSpace=wrap;html=1;fontSize=14;fontStyle=1;fillColor=#fff0f6;strokeColor=#eb2f96;strokeWidth=2;verticalAlign=top" vertex="1" parent="1">
          <mxGeometry x="150" y="80" width="900" height="650" as="geometry"/>
        </mxCell>

        <!-- Actors -->
        <mxCell id="instructor" value="Instructor" style="shape=umlActor;verticalLabelPosition=bottom;verticalAlign=top;html=1;outlineConnect=0;fontSize=12;fillColor=#e1d5e7;strokeColor=#9673a6" vertex="1" parent="1">
          <mxGeometry x="50" y="200" width="40" height="80" as="geometry"/>
        </mxCell>

        <mxCell id="admin" value="System Admin" style="shape=umlActor;verticalLabelPosition=bottom;verticalAlign=top;html=1;outlineConnect=0;fontSize=12;fillColor=#ffd6cc;strokeColor=#d79b00" vertex="1" parent="1">
          <mxGeometry x="50" y="400" width="40" height="80" as="geometry"/>
        </mxCell>

        <mxCell id="content-repository" value="Content Repository" style="shape=umlActor;verticalLabelPosition=bottom;verticalAlign=top;html=1;outlineConnect=0;fontSize=10;fillColor=#fff2cc;strokeColor=#d6b656" vertex="1" parent="1">
          <mxGeometry x="1100" y="300" width="40" height="80" as="geometry"/>
        </mxCell>

        <!-- Primary Use Cases -->
        <mxCell id="create-algorithm-content" value="Create Algorithm Content" style="ellipse;whiteSpace=wrap;html=1;fontSize=11;fillColor=#e1d5e7;strokeColor=#9673a6;fontStyle=1" vertex="1" parent="1">
          <mxGeometry x="200" y="120" width="120" height="70" as="geometry"/>
        </mxCell>

        <mxCell id="manage-curriculum" value="Manage Curriculum Structure" style="ellipse;whiteSpace=wrap;html=1;fontSize=11;fillColor=#e1d5e7;strokeColor=#9673a6" vertex="1" parent="1">
          <mxGeometry x="360" y="120" width="120" height="70" as="geometry"/>
        </mxCell>

        <mxCell id="upload-resources" value="Upload Learning Resources" style="ellipse;whiteSpace=wrap;html=1;fontSize=11;fillColor=#e1d5e7;strokeColor=#9673a6" vertex="1" parent="1">
          <mxGeometry x="520" y="120" width="120" height="70" as="geometry"/>
        </mxCell>

        <mxCell id="version-control" value="Version Control Content" style="ellipse;whiteSpace=wrap;html=1;fontSize=11;fillColor=#ffd6cc;strokeColor=#d79b00" vertex="1" parent="1">
          <mxGeometry x="680" y="120" width="120" height="70" as="geometry"/>
        </mxCell>

        <mxCell id="approve-content" value="Approve Content Publication" style="ellipse;whiteSpace=wrap;html=1;fontSize=11;fillColor=#ffd6cc;strokeColor=#d79b00" vertex="1" parent="1">
          <mxGeometry x="840" y="120" width="120" height="70" as="geometry"/>
        </mxCell>

        <!-- Support Use Cases -->
        <mxCell id="validate-content" value="Validate Content Quality" style="ellipse;whiteSpace=wrap;html=1;fontSize=10;fillColor=#f0f9ff;strokeColor=#1890ff" vertex="1" parent="1">
          <mxGeometry x="250" y="250" width="110" height="60" as="geometry"/>
        </mxCell>

        <mxCell id="organize-metadata" value="Organize Content Metadata" style="ellipse;whiteSpace=wrap;html=1;fontSize=10;fillColor=#f0f9ff;strokeColor=#1890ff" vertex="1" parent="1">
          <mxGeometry x="390" y="250" width="110" height="60" as="geometry"/>
        </mxCell>

        <mxCell id="backup-content" value="Backup Content Data" style="ellipse;whiteSpace=wrap;html=1;fontSize=10;fillColor=#fff7e6;strokeColor=#d48806" vertex="1" parent="1">
          <mxGeometry x="530" y="250" width="110" height="60" as="geometry"/>
        </mxCell>

        <mxCell id="track-usage" value="Track Content Usage" style="ellipse;whiteSpace=wrap;html=1;fontSize=10;fillColor=#e1d5e7;strokeColor=#9673a6" vertex="1" parent="1">
          <mxGeometry x="670" y="250" width="110" height="60" as="geometry"/>
        </mxCell>

        <!-- Specialized Features -->
        <mxCell id="multimedia-integration" value="Multimedia Content Integration" style="ellipse;whiteSpace=wrap;html=1;fontSize=10;fillColor=#fff1f0;strokeColor=#ff4d4f" vertex="1" parent="1">
          <mxGeometry x="200" y="400" width="110" height="60" as="geometry"/>
        </mxCell>

        <mxCell id="interactive-exercises" value="Interactive Exercise Creation" style="ellipse;whiteSpace=wrap;html=1;fontSize=10;fillColor=#fff1f0;strokeColor=#ff4d4f" vertex="1" parent="1">
          <mxGeometry x="330" y="400" width="110" height="60" as="geometry"/>
        </mxCell>

        <mxCell id="assessment-integration" value="Assessment Content Integration" style="ellipse;whiteSpace=wrap;html=1;fontSize=10;fillColor=#fff1f0;strokeColor=#ff4d4f" vertex="1" parent="1">
          <mxGeometry x="460" y="400" width="110" height="60" as="geometry"/>
        </mxCell>

        <mxCell id="localization" value="Content Localization" style="ellipse;whiteSpace=wrap;html=1;fontSize=10;fillColor=#fff1f0;strokeColor=#ff4d4f" vertex="1" parent="1">
          <mxGeometry x="590" y="400" width="110" height="60" as="geometry"/>
        </mxCell>

        <!-- Include Relationships -->
        <mxCell id="include1" value="&lt;&lt;include&gt;&gt;" style="endArrow=openThin;html=1;rounded=0;fontSize=9;startSize=8;endSize=8;dashed=1;exitX=0.5;exitY=1;entryX=0.5;entryY=0;" edge="1" parent="1" source="create-algorithm-content" target="validate-content">
          <mxGeometry width="50" height="50" relative="1" as="geometry">
            <mxPoint x="400" y="350" as="sourcePoint"/>
            <mxPoint x="450" y="300" as="targetPoint"/>
          </mxGeometry>
        </mxCell>

        <mxCell id="include2" value="&lt;&lt;include&gt;&gt;" style="endArrow=openThin;html=1;rounded=0;fontSize=9;startSize=8;endSize=8;dashed=1;exitX=0.5;exitY=1;entryX=0.5;entryY=0;" edge="1" parent="1" source="manage-curriculum" target="organize-metadata">
          <mxGeometry width="50" height="50" relative="1" as="geometry">
            <mxPoint x="400" y="350" as="sourcePoint"/>
            <mxPoint x="450" y="300" as="targetPoint"/>
          </mxGeometry>
        </mxCell>

        <mxCell id="include3" value="&lt;&lt;include&gt;&gt;" style="endArrow=openThin;html=1;rounded=0;fontSize=9;startSize=8;endSize=8;dashed=1;exitX=0.5;exitY=1;entryX=0.5;entryY=0;" edge="1" parent="1" source="upload-resources" target="backup-content">
          <mxGeometry width="50" height="50" relative="1" as="geometry">
            <mxPoint x="400" y="350" as="sourcePoint"/>
            <mxPoint x="450" y="300" as="targetPoint"/>
          </mxGeometry>
        </mxCell>

        <mxCell id="include4" value="&lt;&lt;include&gt;&gt;" style="endArrow=openThin;html=1;rounded=0;fontSize=9;startSize=8;endSize=8;dashed=1;exitX=0.5;exitY=1;entryX=0.5;entryY=0;" edge="1" parent="1" source="approve-content" target="track-usage">
          <mxGeometry width="50" height="50" relative="1" as="geometry">
            <mxPoint x="400" y="350" as="sourcePoint"/>
            <mxPoint x="450" y="300" as="targetPoint"/>
          </mxGeometry>
        </mxCell>

        <!-- Extend Relationships -->
        <mxCell id="extend1" value="&lt;&lt;extend&gt;&gt;" style="endArrow=openThin;html=1;rounded=0;fontSize=9;startSize=8;endSize=8;dashed=1;exitX=0.5;exitY=0;entryX=0.2;entryY=1;" edge="1" parent="1" source="multimedia-integration" target="create-algorithm-content">
          <mxGeometry width="50" height="50" relative="1" as="geometry">
            <mxPoint x="400" y="350" as="sourcePoint"/>
            <mxPoint x="450" y="300" as="targetPoint"/>
          </mxGeometry>
        </mxCell>

        <mxCell id="extend2" value="&lt;&lt;extend&gt;&gt;" style="endArrow=openThin;html=1;rounded=0;fontSize=9;startSize=8;endSize=8;dashed=1;exitX=0.5;exitY=0;entryX=0.5;entryY=1;" edge="1" parent="1" source="interactive-exercises" target="manage-curriculum">
          <mxGeometry width="50" height="50" relative="1" as="geometry">
            <mxPoint x="400" y="350" as="sourcePoint"/>
            <mxPoint x="450" y="300" as="targetPoint"/>
          </mxGeometry>
        </mxCell>

        <mxCell id="extend3" value="&lt;&lt;extend&gt;&gt;" style="endArrow=openThin;html=1;rounded=0;fontSize=9;startSize=8;endSize=8;dashed=1;exitX=0.5;exitY=0;entryX=0.5;entryY=1;" edge="1" parent="1" source="assessment-integration" target="upload-resources">
          <mxGeometry width="50" height="50" relative="1" as="geometry">
            <mxPoint x="400" y="350" as="sourcePoint"/>
            <mxPoint x="450" y="300" as="targetPoint"/>
          </mxGeometry>
        </mxCell>

        <mxCell id="extend4" value="&lt;&lt;extend&gt;&gt;" style="endArrow=openThin;html=1;rounded=0;fontSize=9;startSize=8;endSize=8;dashed=1;exitX=0.5;exitY=0;entryX=0.8;entryY=1;" edge="1" parent="1" source="localization" target="approve-content">
          <mxGeometry width="50" height="50" relative="1" as="geometry">
            <mxPoint x="400" y="350" as="sourcePoint"/>
            <mxPoint x="450" y="300" as="targetPoint"/>
          </mxGeometry>
        </mxCell>

        <!-- Actor Connections -->
        <mxCell id="instructor-create" value="" style="endArrow=none;html=1;rounded=0;fontSize=12;startSize=8;endSize=8;exitX=1;exitY=0.3;" edge="1" parent="1" source="instructor" target="create-algorithm-content">
          <mxGeometry width="50" height="50" relative="1" as="geometry">
            <mxPoint x="400" y="400" as="sourcePoint"/>
            <mxPoint x="450" y="350" as="targetPoint"/>
          </mxGeometry>
        </mxCell>

        <mxCell id="instructor-manage" value="" style="endArrow=none;html=1;rounded=0;fontSize=12;startSize=8;endSize=8;exitX=1;exitY=0.5;" edge="1" parent="1" source="instructor" target="manage-curriculum">
          <mxGeometry width="50" height="50" relative="1" as="geometry">
            <mxPoint x="400" y="400" as="sourcePoint"/>
            <mxPoint x="450" y="350" as="targetPoint"/>
          </mxGeometry>
        </mxCell>

        <mxCell id="instructor-upload" value="" style="endArrow=none;html=1;rounded=0;fontSize=12;startSize=8;endSize=8;exitX=1;exitY=0.7;" edge="1" parent="1" source="instructor" target="upload-resources">
          <mxGeometry width="50" height="50" relative="1" as="geometry">
            <mxPoint x="400" y="400" as="sourcePoint"/>
            <mxPoint x="450" y="350" as="targetPoint"/>
          </mxGeometry>
        </mxCell>

        <mxCell id="admin-version" value="" style="endArrow=none;html=1;rounded=0;fontSize=12;startSize=8;endSize=8;exitX=1;exitY=0.3;" edge="1" parent="1" source="admin" target="version-control">
          <mxGeometry width="50" height="50" relative="1" as="geometry">
            <mxPoint x="400" y="400" as="sourcePoint"/>
            <mxPoint x="450" y="350" as="targetPoint"/>
          </mxGeometry>
        </mxCell>

        <mxCell id="admin-approve" value="" style="endArrow=none;html=1;rounded=0;fontSize=12;startSize=8;endSize=8;exitX=1;exitY=0.5;" edge="1" parent="1" source="admin" target="approve-content">
          <mxGeometry width="50" height="50" relative="1" as="geometry">
            <mxPoint x="400" y="400" as="sourcePoint"/>
            <mxPoint x="450" y="350" as="targetPoint"/>
          </mxGeometry>
        </mxCell>

        <mxCell id="repository-connection" value="" style="endArrow=none;html=1;rounded=0;fontSize=12;startSize=8;endSize=8;exitX=0;exitY=0.5;" edge="1" parent="1" source="content-repository" target="backup-content">
          <mxGeometry width="50" height="50" relative="1" as="geometry">
            <mxPoint x="400" y="400" as="sourcePoint"/>
            <mxPoint x="450" y="350" as="targetPoint"/>
          </mxGeometry>
        </mxCell>

        <!-- Scenarios -->
        <mxCell id="scenario-creation" value="Scenario 1: Content Creation&#xa;1. Instructor creates algorithm content&#xa;2. System validates quality&#xa;3. Multimedia integration&#xa;4. Content metadata organization" style="rounded=1;whiteSpace=wrap;html=1;fontSize=9;align=left;verticalAlign=top;fillColor=#f0f9ff;strokeColor=#1890ff" vertex="1" parent="1">
          <mxGeometry x="180" y="520" width="180" height="90" as="geometry"/>
        </mxCell>

        <mxCell id="scenario-management" value="Scenario 2: Curriculum Management&#xa;1. Instructor organizes curriculum&#xa;2. Interactive exercises creation&#xa;3. Assessment integration&#xa;4. Version control tracking" style="rounded=1;whiteSpace=wrap;html=1;fontSize=9;align=left;verticalAlign=top;fillColor=#f6ffed;strokeColor=#52c41a" vertex="1" parent="1">
          <mxGeometry x="380" y="520" width="180" height="90" as="geometry"/>
        </mxCell>

        <mxCell id="scenario-approval" value="Scenario 3: Content Publication&#xa;1. Admin reviews content&#xa;2. Approves for publication&#xa;3. Content localization&#xa;4. Usage tracking enabled" style="rounded=1;whiteSpace=wrap;html=1;fontSize=9;align=left;verticalAlign=top;fillColor=#fff7e6;strokeColor=#d48806" vertex="1" parent="1">
          <mxGeometry x="580" y="520" width="180" height="90" as="geometry"/>
        </mxCell>

      </root>
    </mxGraphModel>
  </diagram>
</mxfile>
